Coordinates
version=1
nRows=16
nColumns=33
inDegrees=yes

Units are S.I. units (second, meters, Newtons, ...)
Angles are in degrees.

endheader
time	ground_thorax_rot_x	ground_thorax_rot_y	ground_thorax_rot_z	ground_thorax_tx	ground_thorax_ty	ground_thorax_tz	clav_prot_r	clav_elev_r	scapula_abduction_r	scapula_elevation_r	scapula_upward_rot_r	scapula_winging_r	shoulder_elv_r	plane_of_elev_r	axial_rot_r	elbow_flexion_r	pro_sup_r	wrist_flex_r	wrist_dev_r	clav_prot_l	clav_elev_l	scapula_abduction_l	scapula_elevation_l	scapula_upward_rot_l	scapula_winging_l	shoulder_elv_l	plane_of_elev_l	axial_rot_l	elbow_flexion_l	pro_sup_l	wrist_flex_l	wrist_dev_l
      4.57000000	    -90.00000000	     90.00000000	    -90.00000000	    -90.31032417	    784.00661984	      6.49892085	     35.21875804	     42.43888579	     45.00000000	     45.00000000	      4.45430283	  -3986.55531577	    638.77267237	    163.20079508	    -17.98919757	   1811.41795348	     26.71715900	     18.31949316	      9.95806032	    -45.00000000	      5.75852861	     45.00000000	    -17.27266784	    -45.00000000	   1911.11501027	  -4028.11730258	    152.88400107	     41.64332716	   -711.26930260	     26.50292445	      8.66819805	    -19.88106961
      4.58000000	    -90.00000000	     90.00000000	    -90.00000000	    -92.28572656	    784.57831467	      6.37031896	     35.16490124	     42.41788366	     45.00000000	     45.00000000	      4.17187879	  -3986.70964078	    638.91722748	    162.65808003	    -17.76411916	   1811.60165861	     26.58025119	     18.30596093	     10.01595011	    -45.00000000	      5.74563111	     45.00000000	    -17.32600764	    -45.00000000	   1910.72643023	  -4028.00803816	    152.89401240	     41.64977121	   -711.19443697	     26.15552057	      8.65691532	    -19.91244768
      4.59000000	    -90.00000000	     90.00000000	    -90.00000000	    -94.34755508	    785.20377050	      6.26044481	     35.06034443	     42.23527369	     45.00000000	     45.00000000	      4.40319639	  -3986.16544802	    638.69313561	    163.15066770	    -17.74587361	   1811.35396128	     26.47107185	     18.38983191	      9.84919153	    -45.00000000	      5.66353786	     45.00000000	    -17.32987221	    -45.00000000	   1910.41267448	  -4027.82577489	    152.80127647	     41.66741027	   -711.09263427	     25.82020933	      8.62200119	    -19.98172575
      4.60000000	    -90.00000000	     90.00000000	    -90.00000000	    -96.50009991	    785.88198266	      6.16953232	     35.01792084	     42.25323542	     45.00000000	     45.00000000	      4.03074361	  -3986.56495904	    638.89875433	    162.29268566	    -17.45862197	   1811.69298728	     26.40127873	     18.42319155	      9.91525489	    -45.00000000	      5.60621229	     45.00000000	    -17.32877800	    -45.00000000	   1910.07728927	  -4027.65039716	    152.76380210	     41.59783634	   -711.04415169	     25.50529746	      8.61580045	    -20.00819192
      4.61000000	    -90.00000000	     90.00000000	    -90.00000000	    -98.73904335	    786.61060487	      6.09718112	     34.87095649	     42.02117611	     45.00000000	     45.00000000	      4.44151036	  -3985.67457054	    638.60908857	    163.13977735	    -17.49517318	   1811.41591901	     26.34586080	     18.48720857	      9.70542278	    -45.00000000	      5.46642975	     44.71640202	    -17.16581579	    -45.00000000	   1910.10348539	  -4027.51492117	    152.67979814	     41.48397678	   -711.09306256	     25.19673186	      8.59750182	    -20.05126239
      4.62000000	    -90.00000000	     90.00000000	    -90.00000000	   -101.06396815	    787.38852826	      6.04126177	     34.86042332	     42.11707512	     45.00000000	     45.00000000	      3.90634228	  -3986.42326944	    638.92360147	    161.75700369	    -17.11881495	   1811.93608760	     26.31399085	     18.60598333	      9.80972378	    -45.00000000	      5.29744582	     44.43470664	    -17.04369646	    -45.00000000	   1909.94217483	  -4027.38838582	    152.71803756	     41.33317706	   -710.97577725	     24.87013617	      8.56928372	    -20.08597123
      4.63000000	    -90.00000000	     90.00000000	    -90.00000000	   -103.47636178	    788.21541350	      5.99974088	     34.65651418	     41.87964651	     45.00000000	     45.00000000	      4.09378687	  -3985.90810278	    638.76914782	    162.24233675	    -17.13493411	   1811.68901724	     26.27962088	     18.62097429	      9.66027425	    -45.00000000	      5.38356257	     44.28640561	    -17.12976642	    -45.00000000	   1909.69841984	  -4027.37807554	    152.52945761	     41.26651176	   -710.70713166	     24.39246543	      8.48776973	    -20.12774701
      4.64000000	    -90.00000000	     90.00000000	    -90.00000000	   -105.96619519	    789.08612943	      5.97080196	     34.58708706	     41.81654140	     45.00000000	     45.00000000	      4.15491132	  -3985.68060271	    638.62625831	    162.26266485	    -16.96688657	   1811.63607001	     26.25582826	     18.63226429	      9.59553071	    -45.00000000	      5.01121954	     43.94411672	    -16.98589161	    -45.00000000	   1909.72451324	  -4027.29716552	    152.42032727	     41.09681557	   -710.63360153	     23.95640821	      8.46729104	    -20.19312592
      4.65000000	    -90.00000000	     90.00000000	    -90.00000000	   -108.53316089	    789.99758526	      5.95285009	     34.50545250	     41.78527319	     45.00000000	     45.00000000	      4.17268731	  -3985.30053228	    638.71208668	    162.35760524	    -16.75538991	   1811.74593346	     26.23218437	     18.77283334	      9.57095366	    -45.00000000	      4.80197786	     43.41605649	    -16.55475375	    -45.00000000	   1909.88887684	  -4027.25253425	    152.71616684	     40.91824336	   -711.01358740	     23.59848871	      8.46531404	    -20.15040893
      4.66000000	    -90.00000000	     90.00000000	    -90.00000000	   -111.17383646	    790.94461760	      5.94443066	     34.41688009	     41.66341312	     45.00000000	     45.00000000	      4.30809608	  -3985.38686807	    638.57052838	    161.95324039	    -16.67191384	   1811.86121423	     26.16871815	     18.76712739	      9.42573892	    -45.00000000	      4.64504372	     43.60088604	    -16.58423490	    -45.00000000	   1909.53693910	  -4026.78636891	    152.26396227	     40.96761755	   -710.44489027	     23.09757294	      8.42666922	    -20.29719623
      4.67000000	    -90.00000000	     90.00000000	    -90.00000000	   -113.88388244	    791.92141621	      5.94429237	     34.23341631	     41.57379035	     45.00000000	     45.00000000	      4.26321782	  -3985.17360668	    638.65410575	    161.96366603	    -16.52266542	   1811.70555386	     26.12809494	     18.81768460	      9.43935071	    -45.00000000	      4.63643141	     43.15036277	    -16.61928114	    -45.00000000	   1909.41788129	  -4027.02484427	    152.30297829	     40.78021478	   -710.41028019	     22.51832768	      8.37861556	    -20.29287058
      4.68000000	    -90.00000000	     90.00000000	    -90.00000000	   -116.66006000	    792.92281880	      5.95153181	     34.15283757	     41.55732489	     45.00000000	     45.00000000	      4.29758429	  -3984.79568528	    638.66591336	    162.00796885	    -16.29237687	   1811.75115744	     26.08242086	     18.90254419	      9.43496755	    -45.00000000	      4.25900895	     42.56994625	    -16.20867377	    -45.00000000	   1909.70337014	  -4027.01932049	    152.50066182	     40.66680734	   -710.78516279	     22.02080597	      8.36451661	    -20.26597470
      4.69000000	    -90.00000000	     90.00000000	    -90.00000000	   -119.50246169	    793.94467793	      5.96551303	     34.03528925	     41.45808157	     45.00000000	     45.00000000	      4.38123142	  -3984.82987779	    638.59722283	    161.68645734	    -16.22950603	   1811.84980767	     25.98815815	     18.93753634	      9.30281573	    -45.00000000	      4.20681667	     42.73426310	    -16.22278204	    -45.00000000	   1909.28269700	  -4026.64651419	    152.18405470	     40.61153199	   -710.31811376	     21.42675321	      8.34455550	    -20.35858840
      4.70000000	    -90.00000000	     90.00000000	    -90.00000000	   -122.40548705	    794.98190758	      5.98551496	     33.84519719	     41.34195739	     45.00000000	     45.00000000	      4.40169819	  -3984.68189306	    638.61488697	    161.57824029	    -16.08964226	   1811.82105091	     25.89535233	     18.96512103	      9.29943740	    -45.00000000	      4.23135810	     42.40031515	    -16.18035134	    -45.00000000	   1909.18332568	  -4026.71341668	    152.16777896	     40.47776847	   -710.26451414	     20.72371500	      8.29905669	    -20.36559037
      4.71000000	    -90.00000000	     90.00000000	    -90.00000000	   -125.35955066	    796.02766398	      6.01052266	     33.75322553	     41.36479867	     45.00000000	     45.00000000	      4.47271619	  -3984.14533064	    638.69036287	    161.80716454	    -15.82009136	   1811.78343776	     25.83587783	     19.06650139	      9.31648286	    -45.00000000	      3.77420026	     41.78706718	    -15.80595047	    -45.00000000	   1909.49613362	  -4026.75042620	    152.34717628	     40.31078559	   -710.66196831	     20.19587022	      8.30095528	    -20.33822854
      4.72000000	    -90.00000000	     90.00000000	    -90.00000000	   -128.36423412	    797.07899256	      6.03936534	     33.64999919	     41.25558637	     45.00000000	     45.00000000	      4.59445460	  -3984.36921418	    638.57989230	    161.24927774	    -15.71073041	   1812.02413964	     25.70020786	     19.08490964	      9.14149872	    -45.00000000	      3.79753592	     42.02075157	    -15.77583067	    -45.00000000	   1909.03810790	  -4026.28285221	    152.02127749	     40.25756203	   -710.16429175	     19.60385522	      8.23830792	    -20.42347343
